<svg width="72" height="73" viewBox="0 0 72 73" fill="none" xmlns="http://www.w3.org/2000/svg">
<circle cx="35.9254" cy="36.3551" r="35.9215" fill="#FDF7E7"/>
<circle cx="35.9263" cy="36.355" r="25.1451" stroke="#1C4539" stroke-width="2.15529" stroke-linecap="round" stroke-dasharray="0.07 7.9"/>
<path d="M35.9258 23.4238V48.5689" stroke="#1C4539" stroke-width="1.79608" stroke-linecap="round" stroke-linejoin="round"/>
<path d="M41.9134 28.4531H32.933C31.8215 28.4531 30.7556 28.8505 29.9697 29.5578C29.1837 30.2652 28.7422 31.2246 28.7422 32.2249C28.7422 33.2252 29.1837 34.1846 29.9697 34.8919C30.7556 35.5993 31.8215 35.9966 32.933 35.9966H38.9199C40.0314 35.9966 41.0974 36.394 41.8833 37.1014C42.6693 37.8087 43.1108 38.7681 43.1108 39.7684C43.1108 40.7687 42.6693 41.7281 41.8833 42.4354C41.0974 43.1428 40.0314 43.5402 38.9199 43.5402H28.7422" stroke="#1C4539" stroke-width="1.79608" stroke-linecap="round" stroke-linejoin="round"/>
</svg>
