<svg width="72" height="73" viewBox="0 0 72 73" fill="none" xmlns="http://www.w3.org/2000/svg">
<circle cx="35.9996" cy="36.6363" r="35.9215" fill="#FDF7E7"/>
<circle cx="35.9996" cy="36.6363" r="27.3003" stroke="#1C4539" stroke-width="2.15529" stroke-linecap="round" stroke-dasharray="0.07 7.9"/>
<path d="M25.4541 44.3348H20.9805V25.7695H40.4933V44.3348H32.9345" stroke="#1C4539" stroke-width="1.79608" stroke-miterlimit="10"/>
<path d="M43.2944 44.3344H40.4883V31.6592H46.1823L49.244 36.1314L53.8857 37.9968V44.3344H50.7748" stroke="#1C4539" stroke-width="1.79608" stroke-miterlimit="10"/>
<path d="M29.1939 48.0044C31.2598 48.0044 32.9346 46.3529 32.9346 44.3157C32.9346 42.2785 31.2598 40.627 29.1939 40.627C27.1279 40.627 25.4531 42.2785 25.4531 44.3157C25.4531 46.3529 27.1279 48.0044 29.1939 48.0044Z" stroke="#1C4539" stroke-width="1.79608" stroke-miterlimit="10"/>
<path d="M47.0376 48.0044C49.1036 48.0044 50.7784 46.3529 50.7784 44.3157C50.7784 42.2785 49.1036 40.627 47.0376 40.627C44.9717 40.627 43.2969 42.2785 43.2969 44.3157C43.2969 46.3529 44.9717 48.0044 47.0376 48.0044Z" stroke="#1C4539" stroke-width="1.79608" stroke-miterlimit="10"/>
<path d="M49.2475 36.1309H43.2969" stroke="#1C4539" stroke-width="1.79608" stroke-miterlimit="10"/>
</svg>
